<svg width="32" height="24" viewBox="0 0 32 24" fill="none" xmlns="http://www.w3.org/2000/svg">
<path d="M29.3333 0H9.33333C8.41333 0 7.69333 0.466667 7.21333 1.17333L0 12L7.21333 22.8133C7.69333 23.52 8.41333 24 9.33333 24H29.3333C30.8 24 32 22.8 32 21.3333V2.66667C32 1.2 30.8 0 29.3333 0ZM29.3333 21.3333H9.42667L3.2 12L9.41333 2.66667H29.3333V21.3333ZM13.88 18.6667L18.6667 13.88L23.4533 18.6667L25.3333 16.7867L20.5467 12L25.3333 7.21333L23.4533 5.33333L18.6667 10.12L13.88 5.33333L12 7.21333L16.7867 12L12 16.7867L13.88 18.6667Z" fill="white"/>
</svg>
