<svg width="32" height="32" viewBox="0 0 32 32" fill="none" xmlns="http://www.w3.org/2000/svg">
<path d="M16 8.72727C11.9855 8.72727 8.72727 11.9855 8.72727 16C8.72727 20.0145 11.9855 23.2727 16 23.2727C20.0145 23.2727 23.2727 20.0145 23.2727 16C23.2727 11.9855 20.0145 8.72727 16 8.72727ZM1.45455 17.4545H4.36364C5.16364 17.4545 5.81818 16.8 5.81818 16C5.81818 15.2 5.16364 14.5455 4.36364 14.5455H1.45455C0.654545 14.5455 0 15.2 0 16C0 16.8 0.654545 17.4545 1.45455 17.4545ZM27.6364 17.4545H30.5455C31.3455 17.4545 32 16.8 32 16C32 15.2 31.3455 14.5455 30.5455 14.5455H27.6364C26.8364 14.5455 26.1818 15.2 26.1818 16C26.1818 16.8 26.8364 17.4545 27.6364 17.4545ZM14.5455 1.45455V4.36364C14.5455 5.16364 15.2 5.81818 16 5.81818C16.8 5.81818 17.4545 5.16364 17.4545 4.36364V1.45455C17.4545 0.654545 16.8 0 16 0C15.2 0 14.5455 0.654545 14.5455 1.45455ZM14.5455 27.6364V30.5455C14.5455 31.3455 15.2 32 16 32C16.8 32 17.4545 31.3455 17.4545 30.5455V27.6364C17.4545 26.8364 16.8 26.1818 16 26.1818C15.2 26.1818 14.5455 26.8364 14.5455 27.6364ZM7.25818 5.20727C6.69091 4.64 5.76 4.64 5.20727 5.20727C4.64 5.77455 4.64 6.70545 5.20727 7.25818L6.74909 8.8C7.31636 9.36727 8.24727 9.36727 8.8 8.8C9.35273 8.23273 9.36727 7.30182 8.8 6.74909L7.25818 5.20727ZM25.2509 23.2C24.6836 22.6327 23.7527 22.6327 23.2 23.2C22.6327 23.7673 22.6327 24.6982 23.2 25.2509L24.7418 26.7927C25.3091 27.36 26.24 27.36 26.7927 26.7927C27.36 26.2255 27.36 25.2945 26.7927 24.7418L25.2509 23.2ZM26.7927 7.25818C27.36 6.69091 27.36 5.76 26.7927 5.20727C26.2255 4.64 25.2945 4.64 24.7418 5.20727L23.2 6.74909C22.6327 7.31636 22.6327 8.24727 23.2 8.8C23.7673 9.35273 24.6982 9.36727 25.2509 8.8L26.7927 7.25818ZM8.8 25.2509C9.36727 24.6836 9.36727 23.7527 8.8 23.2C8.23273 22.6327 7.30182 22.6327 6.74909 23.2L5.20727 24.7418C4.64 25.3091 4.64 26.24 5.20727 26.7927C5.77455 27.3455 6.70545 27.36 7.25818 26.7927L8.8 25.2509Z" fill="#D1D1D1"/>
</svg>
